<?xml version="1.0" encoding="utf-8" ?>
<svg version="1.1" id="Layer_1" xmlns="http://www.w3.org/2000/svg" xmlns:xlink="http://www.w3.org/1999/xlink" x="0px" y="0px" viewBox="0 0 55 55" style="enable-background:new 0 0 55 55;" xml:space="preserve">
	<path fill="#E13F5E" d="M54,20.1c-0.7-2.5-1.8-4.9-3.1-7c-1-1.6-2.1-3-3.4-4.3c-0.2-0.1-0.3-0.1-0.5-0.2c-2.3-0.8-4.8-1.1-7.2-1
	c-1.2,0.1-2.4,0.2-3.5,0.5c-1.8,0.4-3.3,1.3-4.6,2.3c-3.4,2.7-5.7,8-6.5,13.9l-0.1,0.9l-7-0.1c-0.3,0-0.5,0.2-0.5,0.5l-0.8,4.2
	l8.2,0.1c-0.2,1.6-0.5,3.3-1,4.8c-0.4,1.4-1,2.8-1.8,4.1c-0.5,0.9-1.2,1.7-2,2.3c-1.3,1-3.7,2-6.2,2c-1.6,0-3.7-0.4-5.3-2.4
	c-2.8-3.9-4.2-8.5-4.2-13.3l0-0.1c0.1-12.6,10.4-22.7,23-22.6c2.5,0,5,0.4,7.3,1.3c1.6-0.5,3.5-0.8,5.6-0.8c1.3,0,2.5,0.1,3.7,0.4
	C39.8,2.2,34.1,0.1,28.1,0C12.8-0.3,0.2,12,0,27.2l0,0.1c0,2.6,0.3,5.2,1,7.6c0.7,2.5,1.8,4.9,3.1,7c1,1.6,2.1,3,3.4,4.3
	c0.2,0.1,0.3,0.1,0.5,0.2c2.3,0.8,4.8,1.1,7.2,1c1.2-0.1,2.3-0.2,3.5-0.5c1.8-0.4,3.3-1.3,4.6-2.3c3.4-2.7,5.7-8,6.5-13.9l0.1-0.9
	l0,0l7.1,0.1c0.3,0,0.5-0.2,0.5-0.5l0.8-4.2L30,25.2c0.2-1.6,0.5-3.3,1-4.8c0.4-1.4,1-2.8,1.8-4.1c0.5-0.9,1.2-1.7,2-2.3
	c1.3-1,3.7-2,6.2-2c1.6,0,3.7,0.4,5.3,2.4c2.8,3.9,4.2,8.5,4.2,13.3v0.1c-0.1,12.6-10.4,22.7-23,22.6c-2.5,0-5-0.4-7.3-1.3
	c-1.6,0.5-3.5,0.8-5.6,0.8c-1.3,0-2.6-0.1-3.7-0.4c4.5,3.4,10.2,5.4,16.2,5.6l0.7,0C42.5,55,54.8,42.9,55,28
	C55.1,25.3,54.7,22.6,54,20.1" />
</svg>
